<svg width="41" height="40" viewBox="0 0 41 40" fill="none" xmlns="http://www.w3.org/2000/svg">
<path d="M20.3203 39.07C15.2812 39.07 10.4485 37.0682 6.88528 33.505C3.32209 29.9418 1.32031 25.1091 1.32031 20.07V20.07C1.32031 15.0309 3.32209 10.1982 6.88528 6.63498C10.4485 3.07179 15.2812 1.07001 20.3203 1.07001V1.07001C25.3594 1.07001 30.1921 3.07179 33.7553 6.63498C37.3185 10.1982 39.3203 15.0309 39.3203 20.07C39.3203 25.1091 37.3185 29.9418 33.7553 33.505C30.1921 37.0682 25.3594 39.07 20.3203 39.07V39.07Z" stroke="#222221" stroke-width="1.5" stroke-miterlimit="10"/>
<path d="M20.3199 11.48C23.1099 11.48 23.4399 11.48 24.5399 11.54C25.1988 11.551 25.8513 11.6727 26.4699 11.9C26.923 12.0673 27.333 12.3338 27.6699 12.68C28.0151 13.0177 28.2814 13.4274 28.4499 13.88C28.6869 14.4994 28.8089 15.1568 28.8099 15.82C28.8599 16.92 28.8699 17.25 28.8699 20.04C28.8699 22.83 28.8699 23.15 28.8099 24.25C28.8089 24.9132 28.6869 25.5706 28.4499 26.19C28.2768 26.6457 28.009 27.0596 27.6643 27.4044C27.3195 27.7491 26.9056 28.0168 26.4499 28.19C25.8313 28.4173 25.1788 28.539 24.5199 28.55C23.4199 28.55 23.0899 28.61 20.2999 28.61C17.5099 28.61 17.1799 28.61 16.0799 28.55C15.4209 28.539 14.7685 28.4173 14.1499 28.19C13.6949 28.0265 13.284 27.7594 12.9499 27.41C12.5969 27.0788 12.3293 26.667 12.1699 26.21C11.9329 25.5906 11.8109 24.9332 11.8099 24.27C11.7599 23.17 11.7499 22.84 11.7499 20.06C11.7499 17.28 11.7499 16.94 11.8099 15.84C11.8109 15.1768 11.9329 14.5194 12.1699 13.9C12.3347 13.4456 12.6015 13.0351 12.9499 12.7C13.2867 12.3538 13.6967 12.0873 14.1499 11.92C14.7685 11.6927 15.4209 11.571 16.0799 11.56C17.1799 11.56 17.5099 11.5 20.2999 11.5L20.3199 11.48ZM20.2999 9.61998C17.4699 9.61998 17.1099 9.61998 15.9999 9.68998C15.1322 9.70551 14.2734 9.8678 13.4599 10.17C12.7909 10.4351 12.1846 10.837 11.6799 11.35C11.1291 11.8842 10.7024 12.5328 10.4299 13.25C10.1275 14.06 9.9652 14.9155 9.94989 15.78C9.89989 16.9 9.87988 17.25 9.87988 20.09C9.87988 22.93 9.87989 23.28 9.94989 24.39C9.96422 25.2545 10.1266 26.1102 10.4299 26.92C10.7126 27.6027 11.1389 28.2166 11.6799 28.72C12.1967 29.2514 12.8252 29.6613 13.5199 29.92C14.3326 30.2261 15.1916 30.3918 16.0599 30.41C17.1699 30.46 17.5299 30.47 20.3599 30.47C23.1899 30.47 23.5499 30.47 24.6599 30.41C25.5251 30.393 26.3809 30.2273 27.1899 29.92C27.8882 29.6626 28.5202 29.2527 29.0399 28.72C29.5724 28.1982 29.9852 27.567 30.2499 26.87C30.5484 26.0589 30.7106 25.204 30.7299 24.34C30.7799 23.23 30.7899 22.87 30.7899 20.04C30.7899 17.21 30.7899 16.85 30.7299 15.73C30.7095 14.866 30.5474 14.0113 30.2499 13.2C29.9827 12.5043 29.5702 11.8736 29.0399 11.35C28.5177 10.8204 27.8864 10.4109 27.1899 10.15C26.3802 9.84666 25.5244 9.68431 24.6599 9.66998C23.5499 9.60998 23.1899 9.59998 20.3599 9.59998" fill="#222221"/>
<path d="M20.32 14.68C19.2599 14.68 18.2235 14.9944 17.3421 15.5833C16.4607 16.1723 15.7736 17.0094 15.368 17.9888C14.9623 18.9682 14.8561 20.0459 15.063 21.0857C15.2698 22.1254 15.7803 23.0805 16.5299 23.8301C17.2795 24.5797 18.2345 25.0902 19.2743 25.297C20.314 25.5038 21.3917 25.3977 22.3711 24.992C23.3505 24.5863 24.1877 23.8993 24.7766 23.0178C25.3656 22.1364 25.68 21.1001 25.68 20.04C25.68 18.6184 25.1153 17.2551 24.1101 16.2499C23.1049 15.2447 21.7415 14.68 20.32 14.68ZM20.32 23.52C19.6317 23.52 18.9589 23.3159 18.3866 22.9335C17.8143 22.5511 17.3682 22.0076 17.1049 21.3717C16.8415 20.7358 16.7726 20.0361 16.9068 19.3611C17.0411 18.686 17.3725 18.0659 17.8592 17.5793C18.3459 17.0926 18.966 16.7611 19.6411 16.6269C20.3161 16.4926 21.0158 16.5615 21.6517 16.8249C22.2876 17.0883 22.8311 17.5343 23.2135 18.1066C23.5959 18.6789 23.8 19.3517 23.8 20.04C23.8 20.9629 23.4333 21.8481 22.7807 22.5007C22.1281 23.1534 21.2429 23.52 20.32 23.52Z" fill="#222221"/>
<path d="M27.1403 14.47C27.1462 14.7184 27.078 14.963 26.9443 15.1724C26.8107 15.3819 26.6176 15.5468 26.3898 15.646C26.162 15.7452 25.9097 15.7743 25.6653 15.7295C25.4209 15.6847 25.1954 15.5681 25.0175 15.3946C24.8397 15.221 24.7176 14.9984 24.6669 14.7551C24.6162 14.5118 24.6392 14.259 24.7328 14.0288C24.8265 13.7987 24.9866 13.6017 25.1928 13.4629C25.399 13.3242 25.6418 13.2501 25.8903 13.25C26.0553 13.25 26.2186 13.2827 26.3709 13.3461C26.5233 13.4095 26.6615 13.5025 26.7777 13.6196C26.8939 13.7368 26.9858 13.8758 27.048 14.0286C27.1102 14.1814 27.1416 14.345 27.1403 14.51" fill="#222221"/>
</svg>
