<svg xmlns="http://www.w3.org/2000/svg" viewBox="0 0 20 20"><defs><style>.cls-1{fill:#fff;}</style></defs><g id="ELEMENTS"><path class="cls-1" d="M14.5386,4.4892a1.00505,1.00505,0,1,0,1.0051,1.005A1.00506,1.00506,0,0,0,14.5386,4.4892Z"/><path class="cls-1" d="M10.0704,5.7781A4.2219,4.2219,0,1,0,14.2923,10,4.22672,4.22672,0,0,0,10.0704,5.7781Zm0,6.9263A2.7044,2.7044,0,1,1,12.7747,10,2.70743,2.70743,0,0,1,10.0704,12.7044Z"/><path class="cls-1" d="M13.4221,18.5718H6.5776a5.15522,5.15522,0,0,1-5.1494-5.1494V6.5776A5.15515,5.15515,0,0,1,6.5776,1.4282h6.8445a5.15541,5.15541,0,0,1,5.1497,5.1494v6.8448A5.15547,5.15547,0,0,1,13.4221,18.5718ZM6.5776,3.0411A3.54038,3.54038,0,0,0,3.041,6.5776v6.8448A3.54046,3.54046,0,0,0,6.5776,16.959h6.8445a3.54063,3.54063,0,0,0,3.5368-3.5366V6.5776a3.54055,3.54055,0,0,0-3.5368-3.5365Z"/></g></svg>