<svg width="38" height="29" viewBox="0 0 38 29" fill="none" xmlns="http://www.w3.org/2000/svg">
<path d="M36.1044 28.0998H10.694C9.64668 28.0998 8.79785 27.2509 8.79785 26.2036C8.79785 25.1564 9.64668 24.3075 10.694 24.3075H36.1038C37.1511 24.3075 37.9999 25.1564 37.9999 26.2036C37.9999 27.2509 37.1517 28.0998 36.1044 28.0998Z" fill="white"/>
<path d="M36.1044 16.1979H10.694C9.64668 16.1979 8.79785 15.349 8.79785 14.3018C8.79785 13.2545 9.64668 12.4056 10.694 12.4056H36.1038C37.1511 12.4056 37.9999 13.2545 37.9999 14.3018C38.0005 15.349 37.1517 16.1979 36.1044 16.1979Z" fill="white"/>
<path d="M36.1044 4.29595H10.694C9.64668 4.29595 8.79785 3.44712 8.79785 2.39984C8.79785 1.35255 9.64668 0.503723 10.694 0.503723H36.1038C37.1511 0.503723 37.9999 1.35255 37.9999 2.39984C37.9999 3.44712 37.1517 4.29595 36.1044 4.29595Z" fill="white"/>
<path d="M2.54648 5.09296C3.95286 5.09296 5.09296 3.95286 5.09296 2.54648C5.09296 1.1401 3.95286 0 2.54648 0C1.1401 0 0 1.1401 0 2.54648C0 3.95286 1.1401 5.09296 2.54648 5.09296Z" fill="white"/>
<path d="M2.54648 16.8482C3.95286 16.8482 5.09296 15.7081 5.09296 14.3018C5.09296 12.8954 3.95286 11.7553 2.54648 11.7553C1.1401 11.7553 0 12.8954 0 14.3018C0 15.7081 1.1401 16.8482 2.54648 16.8482Z" fill="white"/>
<path d="M2.54648 28.6035C3.95286 28.6035 5.09296 27.4634 5.09296 26.057C5.09296 24.6506 3.95286 23.5105 2.54648 23.5105C1.1401 23.5105 0 24.6506 0 26.057C0 27.4634 1.1401 28.6035 2.54648 28.6035Z" fill="white"/>
</svg>
