<svg xmlns="http://www.w3.org/2000/svg" viewBox="0 0 20 20"><defs><style>.cls-1,.cls-2{fill:#fff;}.cls-2{fill-rule:evenodd;}</style></defs><g id="ELEMENTS"><path class="cls-1" d="M1.51875,18.50205l1.2191-4.5485a8.41774,8.41774,0,1,1,3.3528,3.3237Zm4.7992-2.9293.2879.1717a6.83377,6.83377,0,1,0-2.3379-2.3168l.1766.29-.6805,2.5395Z"/><path class="cls-2" d="M13.207,11.06435a1.4117,1.4117,0,0,0-1.2027-.271c-.3124.1278-.5119.6169-.7143.8666a.29947.29947,0,0,1-.3874.084A5.44751,5.44751,0,0,1,8.184,9.41515a.3335.3335,0,0,1,.0421-.4553,1.83793,1.83793,0,0,0,.4939-.8018,1.75363,1.75363,0,0,0-.2208-.949,2.25045,2.25045,0,0,0-.7006-1.056.96026.96026,0,0,0-1.0427.155,2.11672,2.11672,0,0,0-.7337,1.6768,2.3812,2.3812,0,0,0,.066.5321,4.40733,4.40733,0,0,0,.5105,1.1764,9.2888,9.2888,0,0,0,.5329.8104,8.22717,8.22717,0,0,0,2.3113,2.1461,6.99413,6.99413,0,0,0,1.4414.6854,3.20287,3.20287,0,0,0,1.6778.265,2.031,2.031,0,0,0,1.5214-1.1317.98328.98328,0,0,0,.0706-.5775C14.06725,11.49325,13.52875,11.25675,13.207,11.06435Z"/></g></svg>