<svg width="40" height="40" viewBox="0 0 40 40" fill="none" xmlns="http://www.w3.org/2000/svg">
<path d="M20 39.06C14.9609 39.06 10.1282 37.0582 6.56497 33.495C3.00178 29.9318 1 25.0991 1 20.06V20.06C1 15.0209 3.00178 10.1882 6.56497 6.62497C10.1282 3.06178 14.9609 1.06 20 1.06V1.06C25.0391 1.06 29.8718 3.06178 33.435 6.62497C36.9982 10.1882 39 15.0209 39 20.06V20.06C39 25.0991 36.9982 29.9318 33.435 33.495C29.8718 37.0582 25.0391 39.06 20 39.06Z" stroke="#222221" stroke-width="1.5" stroke-miterlimit="10"/>
<path fill-rule="evenodd" clip-rule="evenodd" d="M30.4303 19.5C30.3407 16.8597 29.2352 14.3559 27.3442 12.511C25.4533 10.666 22.923 9.62248 20.2813 9.59798C17.6396 9.57347 15.0904 10.5699 13.1655 12.3794C11.2407 14.1889 10.0889 16.6718 9.95031 19.31C9.95031 19.46 9.95031 19.61 9.95031 19.76C9.94929 21.6117 10.4579 23.428 11.4203 25.01L9.57031 30.47L15.2503 28.66C16.8058 29.5146 18.5563 29.951 20.3309 29.9268C22.1054 29.9026 23.8434 29.4184 25.3749 28.5217C26.9064 27.6249 28.1792 26.3462 29.0688 24.8105C29.9583 23.2748 30.4344 21.5347 30.4503 19.76C30.4489 19.673 30.4422 19.5862 30.4303 19.5V19.5ZM20.1903 28.31C18.505 28.3136 16.8561 27.8196 15.4503 26.89L12.1403 27.95L13.2103 24.77C12.146 23.32 11.5716 21.5686 11.5703 19.77C11.5551 19.4935 11.5551 19.2164 11.5703 18.94C11.7955 16.8086 12.8065 14.8375 14.4063 13.4113C16.0061 11.985 18.0798 11.2059 20.223 11.2259C22.3661 11.2459 24.425 12.0635 25.9979 13.5194C27.5708 14.9752 28.5449 16.9648 28.7303 19.1C28.7303 19.32 28.7303 19.54 28.7303 19.77C28.7146 22.0301 27.8098 24.1931 26.2116 25.7913C24.6135 27.3895 22.4504 28.2943 20.1903 28.31V28.31Z" fill="#222221"/>
<path fill-rule="evenodd" clip-rule="evenodd" d="M24.8904 21.81C24.6304 21.69 23.4004 21.08 23.1704 21C22.9404 20.92 22.7704 20.88 22.6004 21.12C22.4304 21.36 21.9504 21.94 21.8104 22.12C21.6704 22.3 21.5204 22.31 21.2604 22.18C20.5245 21.8904 19.847 21.4704 19.2604 20.94C18.7074 20.4487 18.229 19.8794 17.8404 19.25C17.7004 19 17.8404 18.87 17.9604 18.74C18.0804 18.61 18.2004 18.45 18.3304 18.31L18.4304 18.19C18.4304 18.09 18.5304 18.01 18.5804 17.89C18.62 17.8235 18.6409 17.7475 18.6409 17.67C18.6409 17.5926 18.62 17.5166 18.5804 17.45C18.5204 17.33 18.0204 16.1 17.8104 15.6C17.6004 15.1 17.3904 15.19 17.2404 15.19C17.0904 15.19 16.9304 15.19 16.7604 15.19C16.5057 15.2041 16.266 15.315 16.0904 15.5C15.8065 15.7681 15.5817 16.0925 15.4302 16.4523C15.2787 16.8122 15.2038 17.1996 15.2104 17.59C15.2144 17.878 15.2581 18.164 15.3404 18.44C15.5389 19.061 15.8434 19.6429 16.2404 20.16C17.2835 21.7985 18.7715 23.1061 20.5304 23.93C23.0804 24.93 23.0804 24.59 23.5304 24.55C23.8902 24.4707 24.2282 24.3131 24.5203 24.0884C24.8123 23.8637 25.0514 23.5775 25.2204 23.25C25.3836 22.8795 25.4357 22.4696 25.3704 22.07C25.3104 22 25.1404 21.94 24.8904 21.81Z" fill="#222221"/>
</svg>
